<svg height="96" viewBox="0 0 432 96" width="432" xmlns="http://www.w3.org/2000/svg"><path d="M59.15 93.94c3.17 0 5.46-.7 6.87-2.12 1.4-1.4 2.11-3.7 2.11-6.87V70.68H52.54v5.68c0 1.94-.97 2.9-2.9 2.9H29.02c-1.93 0-2.9-.96-2.9-2.9V9.11c0-3.08-.7-5.35-2.12-6.8C22.6.84 20.35.11 17.26.11H.22V14.8H5.9c1.94 0 2.9.97 2.9 2.9v67.26c0 3.17.73 5.46 2.19 6.87 1.45 1.41 3.72 2.12 6.8 2.12zm50.74 1.58c5.37 0 10.48-.99 15.32-2.97s8.77-4.2 11.76-6.67l-6.6-12.03c-7.05 4.93-13.48 7.4-19.3 7.4-5.37 0-9.97-1.56-13.8-4.69-3.83-3.13-6.01-7.5-6.54-13.15h46.5c.36-2.11.54-4.27.54-6.47 0-9.25-2.65-16.9-7.93-22.93-5.29-6.03-12.6-9.05-21.94-9.05-10.13 0-18.38 3.29-24.77 9.85-6.39 6.56-9.58 15.04-9.58 25.43 0 9.87 3.35 18.21 10.04 25.04 6.7 6.83 15.46 10.24 26.3 10.24zm11.1-43.6H91.25c.79-4.32 2.64-7.78 5.55-10.37 2.9-2.6 6.47-3.9 10.7-3.9 3.87 0 7.07 1.28 9.58 3.83 2.5 2.55 3.8 6.03 3.9 10.44zM180.7 94.6c2.11 0 3.87-.14 5.28-.4V79.53l-3.04.27c-3.43 0-6.54-.9-9.31-2.71-2.78-1.8-4.16-5.13-4.16-9.98V39.9h15.32V26.55h-15.32V8.18h-16.26v18.37h-9.24v13.34h8.72v29.34c0 4.31.68 8.08 2.04 11.3s3.04 5.68 5.02 7.4a23.8 23.8 0 007.07 4.16 34.23 34.23 0 007.27 2.04c2.11.31 4.32.47 6.6.47zm47.04 0c2.1 0 3.87-.14 5.28-.4V79.53l-3.04.27c-3.43 0-6.54-.9-9.31-2.71-2.78-1.8-4.17-5.13-4.17-9.98V39.9h15.33V26.55h-15.33V8.18h-16.25v18.37h-9.25v13.34h8.72v29.34c0 4.31.69 8.08 2.05 11.3 1.37 3.21 3.04 5.68 5.02 7.4a23.8 23.8 0 007.07 4.16 34.23 34.23 0 007.27 2.04c2.11.31 4.31.47 6.6.47zm48.35.92c5.38 0 10.49-.99 15.33-2.97s8.77-4.2 11.76-6.67l-6.6-12.03c-7.05 4.93-13.48 7.4-19.3 7.4-5.37 0-9.97-1.56-13.8-4.69-3.84-3.13-6.02-7.5-6.54-13.15h46.5c.36-2.11.53-4.27.53-6.47 0-9.25-2.64-16.9-7.92-22.93-5.29-6.03-12.6-9.05-21.94-9.05-10.13 0-18.39 3.29-24.77 9.85s-9.58 15.04-9.58 25.43c0 9.87 3.35 18.21 10.04 25.04 6.7 6.83 15.46 10.24 26.3 10.24zm11.1-43.6h-29.73c.8-4.32 2.65-7.78 5.55-10.37 2.91-2.6 6.48-3.9 10.7-3.9 3.88 0 7.07 1.28 9.59 3.83 2.5 2.55 3.8 6.03 3.9 10.44zm48.5 42.02v-26.7c0-4.31.48-7.97 1.45-10.96 1.5-4.67 3.94-8.2 7.33-10.57s7.07-3.57 11.03-3.57c1.5 0 2.87.09 4.1.27V25.89l-3.17-.27c-4.93 0-9.32 1.63-13.15 4.9s-6.58 7.4-8.26 12.41h-.26l.26-4.22v-3.97c0-5.46-2.95-8.19-8.85-8.19h-15.46v14.27h5.29c1.94 0 2.9.97 2.9 2.9v50.22zm51.26 1.58c2.82 0 5.46-.42 7.93-1.25 2.46-.84 4.47-1.83 6.01-2.98s2.86-2.29 3.96-3.43 1.9-2.14 2.38-2.98c.49-.83.68-1.25.6-1.25h.26v2.9c0 4.94 2.82 7.4 8.46 7.4h15.2V79.8h-5.3c-1.93 0-2.9-.97-2.9-2.9V51.78c0-8.46-2.25-15.04-6.74-19.76-4.5-4.71-12.11-7.07-22.86-7.07-2.11 0-4.31.16-6.6.47-2.3.3-4.9.9-7.8 1.78a15.8 15.8 0 00-7.13 4.3 10.34 10.34 0 00-2.78 7.33v7.13h15.72v-3.56c0-1.68.97-2.85 2.91-3.5 1.94-.67 3.97-1 6.08-1 4.32 0 7.47 1 9.45 2.98 1.98 1.98 2.97 5.26 2.97 9.84v.92h-2.11c-3 0-5.84.1-8.53.27-2.68.17-6.07.73-10.17 1.65s-7.6 2.16-10.5 3.7a21.55 21.55 0 00-7.6 7c-2.16 3.13-3.24 6.85-3.24 11.17 0 6.08 2.16 10.94 6.48 14.6s9.6 5.48 15.85 5.48zm4.5-12.82c-3.18 0-5.67-.88-7.47-2.64a8.55 8.55 0 01-2.71-6.34c0-7.05 7.53-10.57 22.6-10.57h3.03V65c0 4.4-1.47 8.46-4.42 12.16-2.96 3.7-6.63 5.54-11.04 5.54z" fill="#fff"/></svg>
