<svg height="700pt" preserveAspectRatio="xMidYMid meet" viewBox="0 0 700 700" width="700pt" xmlns="http://www.w3.org/2000/svg"><path d="m2110 6949c-41-27-84-56-95-63-11-8-119-80-240-160s-229-152-240-160-119-80-240-160-224-149-230-154c-5-4-49-33-97-65-49-31-89-60-89-64-1-5-2-990-3-2191l-1-2183 80-52c44-28 82-54 85-57s111-75 240-160 237-157 240-160 86-59 185-125 185-122 190-125c13-7 99-63 105-70 3-3 219-147 480-320s477-317 480-320 111-75 240-160 237-157 240-160 17-13 32-23l28-17 402 267c222 148 407 272 413 276 5 4 381 255 835 557s830 553 835 557c6 4 39 27 75 50l65 42v875c0 481-2 876-5 879-33 29-1305 867-1313 865-7-2-303-198-659-435l-648-433v1313 1312l-647 431c-357 238-653 434-658 437-6 3-44-17-85-44z" transform="matrix(.1 0 0 -.1 0 700)"/></svg>