<svg xmlns="http://www.w3.org/2000/svg" width="1333.333" height="322.667" version="1.0" viewBox="0 0 1000 242"><path d="M94 2C78 5.4 60.5 13.2 48.5 22.3 42.4 26.9 30.3 38.9 25.6 45 15.1 58.5 6.8 77.1 3.5 94.1c-2 11-2.1 31.8 0 42.7 3.3 17.1 10.5 33.6 20.7 47.4 6.9 9.3 26 28.6 35.5 35.7 7.7 5.8 23.6 14 33.2 17 13.2 4.3 22.4 5.4 40.6 4.8 20.2-.6 30.1-2.9 46.1-10.7 63.8-31 84.7-111.7 44.2-170.7-6.7-9.8-28.9-32.2-38.8-39.2-13.7-9.7-27.9-15.8-44.1-19.1C128-.6 106.2-.7 94 2zm40.3 1.5c11 1.6 24.6 5.9 33.8 10.6 6.1 3 16.9 9.8 16.9 10.6 0 .2-2.6-1-5.7-2.6-8.2-4.1-18.5-7.6-28.3-9.7-11.5-2.4-33.4-2.4-44.8 0-41.3 8.7-73.4 36.8-87.5 76.3-9.6 26.9-8 59.9 4.4 86.2 4.8 10.2 3.8 9.7-3-1.8-6.1-10-10.5-21.3-13.4-33.5-2.6-11.6-2.8-35.3-.4-46.3 3.7-16.5 11-32.9 19.9-44.8 25.5-34.1 66.7-51.2 108.1-45zm11.4 24.6c19.5 3 38.3 12.9 48.2 25.4 9.9 12.4 15.8 24.2 19.7 39.5 2.8 11.1 2.6 36.4-.4 47.3-7.9 28.7-27.6 52.1-54.5 64.7-12.1 5.7-22.1 8.1-36.7 8.7-25.1 1.1-46.9-6.1-66.5-21.8-10.9-8.8-19.1-22.9-24.1-41.5-2.9-10.8-2.7-37 .4-48.4 8-29.3 28.2-53.2 55.6-66.1 18.3-8.6 37.3-11.1 58.3-7.8zm61.6 37.1c15.3 20.2 21.5 40 20.4 66-.7 19.7-5.4 34.1-16.3 50.6-7.2 10.7-16.9 20.4-27.6 27.6-9.8 6.5-16.6 9.6-28.7 13.3-7.8 2.4-10.1 2.7-26.1 2.7-15.4.1-18.5-.2-25.4-2.2-14.9-4.3-29.9-12.1-39.4-20.3-4.1-3.6-3.4-3.7 2.1-.2 17.2 10.8 43.2 16.3 64.2 13.3 34.1-4.7 62.4-25 77.7-55.5 6.8-13.4 10.8-30.2 10.8-45 0-18.3-6.2-39.3-16.1-54.3-3.7-5.7-1.3-3.4 4.4 4zM377.5 77.1c-12.5 4.3-21.3 12.2-27.4 24.9-3.5 7.3-3.6 7.8-3.6 19s.1 11.7 3.6 19c4.4 9 9 14.6 16.2 19.3 14.3 9.5 32.9 10.4 48.5 2.3 1.7-.9 5.8-4.1 9.1-7.2 18.7-17.2 19.5-46.4 1.9-65-6-6.4-10.9-9.5-19.3-12.4-7.9-2.7-20.8-2.7-29 .1zM403.6 95c16.8 7.2 22.3 28.5 11.1 43.2-5.2 6.8-11.3 10-20.2 10.6-9.3.6-14.9-1.3-21.3-7.2-6.2-5.7-9.2-12.4-9.2-20.7 0-20.5 20.6-34.1 39.6-25.9zM752.8 76.9c-19.3 6.2-31.8 23.6-31.8 44.2 0 26 19.9 45.9 46 45.9s46-19.9 46-45.9c0-20.8-12.6-38.1-32.1-44.2-7.9-2.5-20.3-2.4-28.1 0zm26.9 18.7c17.2 8.2 21 31.7 7.3 45.4-5.8 5.8-10.2 7.5-20 7.5-9.9 0-14.2-1.7-20.3-7.8-5.5-5.5-8-11.7-8-19.7 0-21.5 21.3-34.7 41-25.4zM852.8 76.9c-16.5 5.3-28.9 19.8-31.8 37.2-3.3 19.5 8 40.4 26.7 49.2 6.5 3 7.4 3.2 18.8 3.2 11.5 0 12.3-.1 19-3.3 11.9-5.7 11.5-4.7 11.5-24.9V121h-18v25.8l-3.7 1.3c-12.9 4.2-27.6-2.1-34.1-14.5-3.7-7.3-3.7-17.9 0-25.2 3-5.8 8.3-10.8 14.2-13.5 8.6-3.9 22.9-1.8 29.3 4.3 1.3 1.2 2.5 2 2.7 1.7.2-.2 2.3-3.5 4.6-7.4 4.9-8 4.8-8.5-2.8-12.7-10.4-5.9-25.1-7.5-36.4-3.9zM937.8 76.9c-19.4 6.4-31.8 23.6-31.8 44.2 0 26.1 19.9 45.9 46.1 45.9 21 0 38.7-13.2 44.4-33.4 2.3-7.9 1.7-21.9-1.3-29.6-4.3-11.1-15.1-21.9-25.9-26.1-8.2-3.1-23.5-3.7-31.5-1zm26.9 18.7c17.2 8.2 21.1 31.6 7.6 45.1-6.1 6.1-10.4 7.8-20.3 7.8-9.8 0-14.2-1.7-20-7.5-5.7-5.7-8.2-11.8-8.2-19.9 0-21.7 21.1-34.8 40.9-25.5zM267.2 94.2c.3 16.3.5 18.8 2.5 23 3.2 7 10.6 14.4 18 17.9l6.3 3V165h18V137.3l4.8-1.8c6.9-2.7 16.3-12.4 19-19.8 1.9-5.1 2.2-7.8 2.2-22.7V76h-16.8l-.4 15.7c-.4 16.3-.8 18.4-5.2 23.1-3.3 3.7-7.6 5.5-13.4 5.5-4.3 0-6.1-.6-9.4-2.9-7-5-7.8-7.6-7.8-25.6V76h-18.2l.4 18.2zM449 102.2c0 14.5.5 29.2 1 32.7 2 12 9.4 22 20 27 7.8 3.6 20.2 4.1 28.2 1.1 7.4-2.8 14.6-9.3 18.9-17.2l3.4-6.3.3-31.8.3-31.7H503v29.2c0 28.5-.1 29.4-2.3 33.3-3 5.4-8.7 8.5-15.5 8.5-2.9 0-6.6-.7-8.1-1.5-3.9-2-7.8-6.9-9.1-11.3-.5-2.1-1-15.3-1-31V76h-18v26.2zM537 120.4V165h17.9l.3-8.8.3-8.7 9.6-.3 9.7-.3 3.8 9.1 3.8 9h9.3c5.1 0 9.3-.3 9.3-.8 0-.4-2-5.4-4.5-11.2l-4.4-10.5 5-4.8c7.4-7.1 11.2-15.6 11.2-25.5 0-5.5-.7-9.3-2.2-13.4-2.9-7.6-10.5-15.9-17.9-19.5-5.7-2.8-5.9-2.8-28.4-3.1l-22.8-.3v44.5zm46.3-23.1c9 6.9 9.8 18.8 1.8 26.8-4.6 4.6-9.1 5.9-20.8 5.9H555V93.8l12.3.4c11.8.3 12.5.4 16 3.1zM656 120.5V165h63v-17l-22.2-.2-22.3-.3-.3-35.8L674 76h-18v44.5z"/></svg>