<svg width="196" height="196" viewBox="0 0 196 196" xmlns="http://www.w3.org/2000/svg"><path d="M47.98 145.42c1.98 0 3.91-.87 5.8-2.6a8.43 8.43 0 002.82-6.46c0-2.38-.8-4.06-2.38-5.05L25.4 112.59l28.82-18.86c1.58-.9 2.38-2.53 2.38-4.9 0-2.58-.94-4.74-2.83-6.47-1.88-1.73-3.8-2.6-5.79-2.6-1.09 0-1.93.2-2.52.6l-38.33 25.1a8.06 8.06 0 00-3.04 3.42 8.99 8.99 0 00-.97 3.71c0 1.1.32 2.33.97 3.71a8.06 8.06 0 003.04 3.42l38.33 24.96c.59.5 1.43.74 2.52.74zm78.29 8.32c1.88 0 3.29-.9 4.23-2.67a12.22 12.22 0 001.41-5.8c0-2.18-.47-4.13-1.41-5.87a4.55 4.55 0 00-4.23-2.6h-36.4V51.1c0-2.09-.99-3.6-2.97-4.54a15.39 15.39 0 00-6.68-1.4c-2.38 0-4.58.46-6.61 1.4-2.03.94-3.05 2.45-3.05 4.53v96.56c0 1.98.9 3.49 2.67 4.53a11.3 11.3 0 005.8 1.56h47.24zm20.8-8.32c1.08 0 1.92-.25 2.52-.74l38.32-24.96a8.06 8.06 0 003.05-3.42c.64-1.38.96-2.62.96-3.7 0-1.1-.32-2.34-.96-3.72a8.06 8.06 0 00-3.05-3.42l-38.32-25.1c-.6-.4-1.44-.6-2.53-.6-1.88 0-3.79.87-5.72 2.6a8.33 8.33 0 00-2.9 6.46c0 2.38.85 4.01 2.53 4.9l28.67 18.87-28.67 18.72c-1.68.99-2.52 2.67-2.52 5.05 0 2.57.96 4.73 2.9 6.46 1.92 1.73 3.83 2.6 5.71 2.6z" fill="#000" fill-rule="nonzero"/></svg>